<svg width="47" height="54" viewBox="0 0 47 54" fill="none" xmlns="http://www.w3.org/2000/svg">
<path d="M35.696 53.872L28.912 45.744C27.0347 46.2133 25.1147 46.448 23.152 46.448C18.9707 46.448 15.1307 45.4667 11.632 43.504C8.13333 41.5413 5.36 38.832 3.312 35.376C1.264 31.8773 0.24 27.9307 0.24 23.536C0.24 19.184 1.264 15.28 3.312 11.824C5.36 8.32533 8.13333 5.59466 11.632 3.632C15.1307 1.66933 18.9707 0.688 23.152 0.688C27.376 0.688 31.216 1.66933 34.672 3.632C38.1707 5.59466 40.9227 8.32533 42.928 11.824C44.976 15.28 46 19.184 46 23.536C46 27.504 45.1467 31.1307 43.44 34.416C41.776 37.6587 39.4933 40.304 36.592 42.352L46.832 53.872H35.696ZM9.456 23.536C9.456 26.5227 10.032 29.1467 11.184 31.408C12.336 33.6693 13.936 35.4187 15.984 36.656C18.0747 37.8507 20.464 38.448 23.152 38.448C25.84 38.448 28.208 37.8507 30.256 36.656C32.304 35.4187 33.904 33.6693 35.056 31.408C36.208 29.1467 36.784 26.5227 36.784 23.536C36.784 20.5493 36.208 17.9467 35.056 15.728C33.904 13.4667 32.304 11.7387 30.256 10.544C28.208 9.34933 25.84 8.752 23.152 8.752C20.464 8.752 18.0747 9.34933 15.984 10.544C13.936 11.7387 12.336 13.4667 11.184 15.728C10.032 17.9467 9.456 20.5493 9.456 23.536Z" fill="#F9A826"/>
</svg>
